<svg id="visual" viewBox="0 0 1920 1080" width="1920" height="1080" xmlns="http://www.w3.org/2000/svg" xmlns:xlink="http://www.w3.org/1999/xlink" version="1.1"><rect x="0" y="0" width="1920" height="1080" fill="#001220"></rect><defs><linearGradient id="grad1_0" x1="43.8%" y1="0%" x2="100%" y2="100%"><stop offset="14.444444444444446%" stop-color="#fbae3c" stop-opacity="1"></stop><stop offset="85.55555555555554%" stop-color="#fbae3c" stop-opacity="1"></stop></linearGradient></defs><defs><linearGradient id="grad1_1" x1="43.8%" y1="0%" x2="100%" y2="100%"><stop offset="14.444444444444446%" stop-color="#fbae3c" stop-opacity="1"></stop><stop offset="85.55555555555554%" stop-color="#e1685e" stop-opacity="1"></stop></linearGradient></defs><defs><linearGradient id="grad1_2" x1="43.8%" y1="0%" x2="100%" y2="100%"><stop offset="14.444444444444446%" stop-color="#96446e" stop-opacity="1"></stop><stop offset="85.55555555555554%" stop-color="#e1685e" stop-opacity="1"></stop></linearGradient></defs><defs><linearGradient id="grad1_3" x1="43.8%" y1="0%" x2="100%" y2="100%"><stop offset="14.444444444444446%" stop-color="#96446e" stop-opacity="1"></stop><stop offset="85.55555555555554%" stop-color="#3d3056" stop-opacity="1"></stop></linearGradient></defs><defs><linearGradient id="grad1_4" x1="43.8%" y1="0%" x2="100%" y2="100%"><stop offset="14.444444444444446%" stop-color="#001220" stop-opacity="1"></stop><stop offset="85.55555555555554%" stop-color="#3d3056" stop-opacity="1"></stop></linearGradient></defs><defs><linearGradient id="grad2_0" x1="0%" y1="0%" x2="56.3%" y2="100%"><stop offset="14.444444444444446%" stop-color="#fbae3c" stop-opacity="1"></stop><stop offset="85.55555555555554%" stop-color="#fbae3c" stop-opacity="1"></stop></linearGradient></defs><defs><linearGradient id="grad2_1" x1="0%" y1="0%" x2="56.3%" y2="100%"><stop offset="14.444444444444446%" stop-color="#e1685e" stop-opacity="1"></stop><stop offset="85.55555555555554%" stop-color="#fbae3c" stop-opacity="1"></stop></linearGradient></defs><defs><linearGradient id="grad2_2" x1="0%" y1="0%" x2="56.3%" y2="100%"><stop offset="14.444444444444446%" stop-color="#e1685e" stop-opacity="1"></stop><stop offset="85.55555555555554%" stop-color="#96446e" stop-opacity="1"></stop></linearGradient></defs><defs><linearGradient id="grad2_3" x1="0%" y1="0%" x2="56.3%" y2="100%"><stop offset="14.444444444444446%" stop-color="#3d3056" stop-opacity="1"></stop><stop offset="85.55555555555554%" stop-color="#96446e" stop-opacity="1"></stop></linearGradient></defs><defs><linearGradient id="grad2_4" x1="0%" y1="0%" x2="56.3%" y2="100%"><stop offset="14.444444444444446%" stop-color="#3d3056" stop-opacity="1"></stop><stop offset="85.55555555555554%" stop-color="#001220" stop-opacity="1"></stop></linearGradient></defs><g transform="translate(1920, 0)"><path d="M0 918C-60.3 915.9 -120.6 913.8 -179.1 900.4C-237.6 887 -294.4 862.3 -342.5 826.9C-390.6 791.5 -430.2 745.4 -472.8 707.6C-515.4 669.8 -561.1 640.4 -608.1 608.1C-655.1 575.9 -703.4 540.8 -741.7 495.6C-779.9 450.3 -808.1 395 -813.9 337.1C-819.8 279.3 -803.4 219.1 -817 162.5C-830.6 105.9 -874.3 53 -918 0L0 0Z" fill="#18223c"></path><path d="M0 734.4C-48.2 732.7 -96.5 731 -143.3 720.3C-190.1 709.6 -235.5 689.8 -274 661.5C-312.5 633.2 -344.1 596.3 -378.2 566.1C-412.3 535.8 -448.9 512.3 -486.5 486.5C-524.1 460.7 -562.7 432.6 -593.3 396.5C-623.9 360.3 -646.5 316 -651.2 269.7C-655.8 223.5 -642.7 175.3 -653.6 130C-664.5 84.7 -699.4 42.4 -734.4 0L0 0Z" fill="#683a67"></path><path d="M0 550.8C-36.2 549.5 -72.3 548.3 -107.5 540.2C-142.6 532.2 -176.6 517.4 -205.5 496.1C-234.4 474.9 -258.1 447.2 -283.7 424.5C-309.2 401.9 -336.7 384.2 -364.9 364.9C-393.1 345.5 -422.1 324.5 -445 297.3C-467.9 270.2 -484.8 237 -488.4 202.3C-491.9 167.6 -482 131.5 -490.2 97.5C-498.4 63.5 -524.6 31.8 -550.8 0L0 0Z" fill="#c0526a"></path><path d="M0 367.2C-24.1 366.4 -48.2 365.5 -71.6 360.1C-95 354.8 -117.7 344.9 -137 330.7C-156.3 316.6 -172.1 298.1 -189.1 283C-206.2 267.9 -224.4 256.1 -243.2 243.2C-262 230.3 -281.4 216.3 -296.7 198.2C-312 180.1 -323.2 158 -325.6 134.9C-327.9 111.7 -321.3 87.6 -326.8 65C-332.2 42.4 -349.7 21.2 -367.2 0L0 0Z" fill="#f6884d"></path><path d="M0 183.6C-12.1 183.2 -24.1 182.8 -35.8 180.1C-47.5 177.4 -58.9 172.5 -68.5 165.4C-78.1 158.3 -86 149.1 -94.6 141.5C-103.1 134 -112.2 128.1 -121.6 121.6C-131 115.2 -140.7 108.2 -148.3 99.1C-156 90.1 -161.6 79 -162.8 67.4C-164 55.9 -160.7 43.8 -163.4 32.5C-166.1 21.2 -174.9 10.6 -183.6 0L0 0Z" fill="#fbae3c"></path></g><g transform="translate(0, 1080)"><path d="M0 -918C56.9 -902.2 113.7 -886.5 175.2 -880.7C236.7 -875 302.8 -879.4 351.3 -848.1C399.8 -816.8 430.8 -749.9 470 -703.4C509.2 -656.9 556.7 -630.9 594 -594C631.2 -557.1 658.3 -509.3 698.4 -466.7C738.5 -424 791.6 -386.4 812.1 -336.4C832.6 -286.3 820.5 -223.8 832.7 -165.6C844.9 -107.5 881.5 -53.7 918 0L0 0Z" fill="#18223c"></path><path d="M0 -734.4C45.5 -721.8 91 -709.2 140.2 -704.6C189.3 -700 242.2 -703.5 281 -678.5C319.9 -653.5 344.6 -599.9 376 -562.7C407.4 -525.5 445.4 -504.7 475.2 -475.2C505 -445.7 526.7 -407.5 558.7 -373.3C590.8 -339.2 633.3 -309.2 649.7 -269.1C666.1 -229.1 656.4 -179 666.1 -132.5C675.9 -86 705.2 -43 734.4 0L0 0Z" fill="#683a67"></path><path d="M0 -550.8C34.1 -541.3 68.2 -531.9 105.1 -528.4C142 -525 181.7 -527.6 210.8 -508.9C239.9 -490.1 258.5 -449.9 282 -422.1C305.5 -394.2 334 -378.5 356.4 -356.4C378.7 -334.2 395 -305.6 419.1 -280C443.1 -254.4 475 -231.9 487.3 -201.8C499.5 -171.8 492.3 -134.3 499.6 -99.4C506.9 -64.5 528.9 -32.2 550.8 0L0 0Z" fill="#c0526a"></path><path d="M0 -367.2C22.7 -360.9 45.5 -354.6 70.1 -352.3C94.7 -350 121.1 -351.8 140.5 -339.2C159.9 -326.7 172.3 -300 188 -281.4C203.7 -262.8 222.7 -252.3 237.6 -237.6C252.5 -222.8 263.3 -203.7 279.4 -186.7C295.4 -169.6 316.6 -154.6 324.8 -134.6C333 -114.5 328.2 -89.5 333.1 -66.3C338 -43 352.6 -21.5 367.2 0L0 0Z" fill="#f6884d"></path><path d="M0 -183.6C11.4 -180.4 22.7 -177.3 35 -176.1C47.3 -175 60.6 -175.9 70.3 -169.6C80 -163.4 86.2 -150 94 -140.7C101.8 -131.4 111.3 -126.2 118.8 -118.8C126.2 -111.4 131.7 -101.9 139.7 -93.3C147.7 -84.8 158.3 -77.3 162.4 -67.3C166.5 -57.3 164.1 -44.8 166.5 -33.1C169 -21.5 176.3 -10.7 183.6 0L0 0Z" fill="#fbae3c"></path></g></svg>