<svg id="visual" viewBox="0 0 1920 1080" width="1920" height="1080" xmlns="http://www.w3.org/2000/svg" xmlns:xlink="http://www.w3.org/1999/xlink" version="1.1"><rect x="0" y="0" width="1920" height="1080" fill="#001220"></rect><defs><linearGradient id="grad1_0" x1="43.8%" y1="0%" x2="100%" y2="100%"><stop offset="14.444444444444446%" stop-color="#fbae3c" stop-opacity="1"></stop><stop offset="85.55555555555554%" stop-color="#fbae3c" stop-opacity="1"></stop></linearGradient></defs><defs><linearGradient id="grad1_1" x1="43.8%" y1="0%" x2="100%" y2="100%"><stop offset="14.444444444444446%" stop-color="#fbae3c" stop-opacity="1"></stop><stop offset="85.55555555555554%" stop-color="#cc5867" stop-opacity="1"></stop></linearGradient></defs><defs><linearGradient id="grad1_2" x1="43.8%" y1="0%" x2="100%" y2="100%"><stop offset="14.444444444444446%" stop-color="#593762" stop-opacity="1"></stop><stop offset="85.55555555555554%" stop-color="#cc5867" stop-opacity="1"></stop></linearGradient></defs><defs><linearGradient id="grad1_3" x1="43.8%" y1="0%" x2="100%" y2="100%"><stop offset="14.444444444444446%" stop-color="#593762" stop-opacity="1"></stop><stop offset="85.55555555555554%" stop-color="#001220" stop-opacity="1"></stop></linearGradient></defs><defs><linearGradient id="grad2_0" x1="0%" y1="0%" x2="56.3%" y2="100%"><stop offset="14.444444444444446%" stop-color="#fbae3c" stop-opacity="1"></stop><stop offset="85.55555555555554%" stop-color="#fbae3c" stop-opacity="1"></stop></linearGradient></defs><defs><linearGradient id="grad2_1" x1="0%" y1="0%" x2="56.3%" y2="100%"><stop offset="14.444444444444446%" stop-color="#cc5867" stop-opacity="1"></stop><stop offset="85.55555555555554%" stop-color="#fbae3c" stop-opacity="1"></stop></linearGradient></defs><defs><linearGradient id="grad2_2" x1="0%" y1="0%" x2="56.3%" y2="100%"><stop offset="14.444444444444446%" stop-color="#cc5867" stop-opacity="1"></stop><stop offset="85.55555555555554%" stop-color="#593762" stop-opacity="1"></stop></linearGradient></defs><defs><linearGradient id="grad2_3" x1="0%" y1="0%" x2="56.3%" y2="100%"><stop offset="14.444444444444446%" stop-color="#001220" stop-opacity="1"></stop><stop offset="85.55555555555554%" stop-color="#593762" stop-opacity="1"></stop></linearGradient></defs><g transform="translate(1920, 0)"><path d="M0 972C-117.6 857.5 -235.3 743.1 -390.5 676.4C-545.7 609.7 -738.6 590.8 -841.8 486C-945 381.2 -958.5 190.6 -972 0L0 0Z" fill="#232745"></path><path d="M0 729C-88.2 643.1 -176.4 557.3 -292.9 507.3C-409.3 457.3 -553.9 443.1 -631.3 364.5C-708.7 285.9 -718.9 143 -729 0L0 0Z" fill="#96446e"></path><path d="M0 486C-58.8 428.8 -117.6 371.5 -195.2 338.2C-272.9 304.8 -369.3 295.4 -420.9 243C-472.5 190.6 -479.2 95.3 -486 0L0 0Z" fill="#f17c53"></path><path d="M0 243C-29.4 214.4 -58.8 185.8 -97.6 169.1C-136.4 152.4 -184.6 147.7 -210.4 121.5C-236.2 95.3 -239.6 47.7 -243 0L0 0Z" fill="#fbae3c"></path></g><g transform="translate(0, 1080)"><path d="M0 -972C97.9 -823.3 195.8 -674.7 353.5 -612.3C511.2 -549.9 728.7 -573.7 841.8 -486C954.8 -398.3 963.4 -199.2 972 0L0 0Z" fill="#232745"></path><path d="M0 -729C73.4 -617.5 146.8 -506 265.1 -459.2C383.4 -412.4 546.5 -430.3 631.3 -364.5C716.1 -298.7 722.6 -149.4 729 0L0 0Z" fill="#96446e"></path><path d="M0 -486C48.9 -411.7 97.9 -337.3 176.7 -306.1C255.6 -274.9 364.4 -286.8 420.9 -243C477.4 -199.2 481.7 -99.6 486 0L0 0Z" fill="#f17c53"></path><path d="M0 -243C24.5 -205.8 48.9 -168.7 88.4 -153.1C127.8 -137.5 182.2 -143.4 210.4 -121.5C238.7 -99.6 240.9 -49.8 243 0L0 0Z" fill="#fbae3c"></path></g></svg>